<svg id="visual" viewBox="0 0 900 600" width="900" height="600" xmlns="http://www.w3.org/2000/svg" xmlns:xlink="http://www.w3.org/1999/xlink" version="1.1"><rect x="0" y="0" width="900" height="600" fill="#d6ecd8"></rect><defs><linearGradient id="grad1_0" x1="33.3%" y1="0%" x2="100%" y2="100%"><stop offset="20%" stop-color="#d6ecd8" stop-opacity="1"></stop><stop offset="80%" stop-color="#d6ecd8" stop-opacity="1"></stop></linearGradient></defs><defs><linearGradient id="grad2_0" x1="0%" y1="0%" x2="66.7%" y2="100%"><stop offset="20%" stop-color="#d6ecd8" stop-opacity="1"></stop><stop offset="80%" stop-color="#d6ecd8" stop-opacity="1"></stop></linearGradient></defs><g transform="translate(900, 0)"><path d="M0 485C-67 481.6 -133.9 478.2 -186.3 449.7C-238.6 421.2 -276.3 367.7 -319.6 319.6C-362.9 271.5 -411.7 228.8 -425.9 176.4C-440.1 124 -419.5 62 -399 0L0 0Z" fill="#cae9d3"></path></g><g transform="translate(0, 600)"><path d="M0 -486.7C64.2 -469.6 128.4 -452.5 172.2 -415.7C216.1 -379 239.6 -322.8 282.8 -282.8C326.1 -242.9 389.1 -219.3 422.2 -174.9C455.4 -130.5 458.7 -65.2 462 0L0 0Z" fill="#cae9d3"></path></g></svg>