<svg id="visual" viewBox="0 0 900 600" width="900" height="600" xmlns="http://www.w3.org/2000/svg" xmlns:xlink="http://www.w3.org/1999/xlink" version="1.1"><path d="M0 429L21.5 440.7C43 452.3 86 475.7 128.8 487.2C171.7 498.7 214.3 498.3 257.2 495.2C300 492 343 486 385.8 482.5C428.7 479 471.3 478 514.2 469.5C557 461 600 445 642.8 442.8C685.7 440.7 728.3 452.3 771.2 457.5C814 462.7 857 461.3 878.5 460.7L900 460L900 601L878.5 601C857 601 814 601 771.2 601C728.3 601 685.7 601 642.8 601C600 601 557 601 514.2 601C471.3 601 428.7 601 385.8 601C343 601 300 601 257.2 601C214.3 601 171.7 601 128.8 601C86 601 43 601 21.5 601L0 601Z" fill="#cae9d3" stroke-linecap="round" stroke-linejoin="miter"></path></svg>