<svg id="visual" viewBox="0 0 900 600" width="900" height="600" xmlns="http://www.w3.org/2000/svg" xmlns:xlink="http://www.w3.org/1999/xlink" version="1.1"><path d="M0 85L13.7 90C27.3 95 54.7 105 82 109C109.3 113 136.7 111 163.8 108C191 105 218 101 245.2 94C272.3 87 299.7 77 327 71C354.3 65 381.7 63 409 64C436.3 65 463.7 69 491 73C518.3 77 545.7 81 573 88C600.3 95 627.7 105 654.8 109C682 113 709 111 736.2 102C763.3 93 790.7 77 818 72C845.3 67 872.7 73 886.3 76L900 79L900 0L886.3 0C872.7 0 845.3 0 818 0C790.7 0 763.3 0 736.2 0C709 0 682 0 654.8 0C627.7 0 600.3 0 573 0C545.7 0 518.3 0 491 0C463.7 0 436.3 0 409 0C381.7 0 354.3 0 327 0C299.7 0 272.3 0 245.2 0C218 0 191 0 163.8 0C136.7 0 109.3 0 82 0C54.7 0 27.3 0 13.7 0L0 0Z" fill="#cae9d3"></path><path d="M0 169L13.7 173C27.3 177 54.7 185 82 206C109.3 227 136.7 261 163.8 258C191 255 218 215 245.2 212C272.3 209 299.7 243 327 242C354.3 241 381.7 205 409 203C436.3 201 463.7 233 491 246C518.3 259 545.7 253 573 259C600.3 265 627.7 283 654.8 294C682 305 709 309 736.2 293C763.3 277 790.7 241 818 229C845.3 217 872.7 229 886.3 235L900 241L900 77L886.3 74C872.7 71 845.3 65 818 70C790.7 75 763.3 91 736.2 100C709 109 682 111 654.8 107C627.7 103 600.3 93 573 86C545.7 79 518.3 75 491 71C463.7 67 436.3 63 409 62C381.7 61 354.3 63 327 69C299.7 75 272.3 85 245.2 92C218 99 191 103 163.8 106C136.7 109 109.3 111 82 107C54.7 103 27.3 93 13.7 88L0 83Z" fill="#c0e4c8"></path><path d="M0 241L13.7 244C27.3 247 54.7 253 82 270C109.3 287 136.7 315 163.8 320C191 325 218 307 245.2 306C272.3 305 299.7 321 327 322C354.3 323 381.7 309 409 317C436.3 325 463.7 355 491 360C518.3 365 545.7 345 573 349C600.3 353 627.7 381 654.8 403C682 425 709 441 736.2 430C763.3 419 790.7 381 818 372C845.3 363 872.7 383 886.3 393L900 403L900 239L886.3 233C872.7 227 845.3 215 818 227C790.7 239 763.3 275 736.2 291C709 307 682 303 654.8 292C627.7 281 600.3 263 573 257C545.7 251 518.3 257 491 244C463.7 231 436.3 199 409 201C381.7 203 354.3 239 327 240C299.7 241 272.3 207 245.2 210C218 213 191 253 163.8 256C136.7 259 109.3 225 82 204C54.7 183 27.3 175 13.7 171L0 167Z" fill="#b6debc"></path><path d="M0 505L13.7 505C27.3 505 54.7 505 82 510C109.3 515 136.7 525 163.8 526C191 527 218 519 245.2 520C272.3 521 299.7 531 327 532C354.3 533 381.7 525 409 522C436.3 519 463.7 521 491 519C518.3 517 545.7 511 573 514C600.3 517 627.7 529 654.8 537C682 545 709 549 736.2 550C763.3 551 790.7 549 818 551C845.3 553 872.7 559 886.3 562L900 565L900 401L886.3 391C872.7 381 845.3 361 818 370C790.7 379 763.3 417 736.2 428C709 439 682 423 654.8 401C627.7 379 600.3 351 573 347C545.7 343 518.3 363 491 358C463.7 353 436.3 323 409 315C381.7 307 354.3 321 327 320C299.7 319 272.3 303 245.2 304C218 305 191 323 163.8 318C136.7 313 109.3 285 82 268C54.7 251 27.3 245 13.7 242L0 239Z" fill="#a2d0a8"></path><path d="M0 601L13.7 601C27.3 601 54.7 601 82 601C109.3 601 136.7 601 163.8 601C191 601 218 601 245.2 601C272.3 601 299.7 601 327 601C354.3 601 381.7 601 409 601C436.3 601 463.7 601 491 601C518.3 601 545.7 601 573 601C600.3 601 627.7 601 654.8 601C682 601 709 601 736.2 601C763.3 601 790.7 601 818 601C845.3 601 872.7 601 886.3 601L900 601L900 563L886.3 560C872.7 557 845.3 551 818 549C790.7 547 763.3 549 736.2 548C709 547 682 543 654.8 535C627.7 527 600.3 515 573 512C545.7 509 518.3 515 491 517C463.7 519 436.3 517 409 520C381.7 523 354.3 531 327 530C299.7 529 272.3 519 245.2 518C218 517 191 525 163.8 524C136.7 523 109.3 513 82 508C54.7 503 27.3 503 13.7 503L0 503Z" fill="#8ec295"></path></svg>