<svg id="visual" viewBox="0 0 900 600" width="900" height="600" xmlns="http://www.w3.org/2000/svg" xmlns:xlink="http://www.w3.org/1999/xlink" version="1.1"><path d="M0 25L25 35C50 45 100 65 150 77C200 89 250 93 300 91C350 89 400 81 450 73C500 65 550 57 600 59C650 61 700 73 750 74C800 75 850 65 875 60L900 55L900 0L875 0C850 0 800 0 750 0C700 0 650 0 600 0C550 0 500 0 450 0C400 0 350 0 300 0C250 0 200 0 150 0C100 0 50 0 25 0L0 0Z" fill="#cae9d3"></path><path d="M0 61L25 72C50 83 100 105 150 118C200 131 250 135 300 134C350 133 400 127 450 121C500 115 550 109 600 113C650 117 700 131 750 139C800 147 850 149 875 150L900 151L900 53L875 58C850 63 800 73 750 72C700 71 650 59 600 57C550 55 500 63 450 71C400 79 350 87 300 89C250 91 200 87 150 75C100 63 50 43 25 33L0 23Z" fill="#c2e5ca"></path><path d="M0 313L25 303C50 293 100 273 150 267C200 261 250 269 300 281C350 293 400 309 450 321C500 333 550 341 600 342C650 343 700 337 750 315C800 293 850 255 875 236L900 217L900 149L875 148C850 147 800 145 750 137C700 129 650 115 600 111C550 107 500 113 450 119C400 125 350 131 300 132C250 133 200 129 150 116C100 103 50 81 25 70L0 59Z" fill="#bae0c1"></path><path d="M0 403L25 398C50 393 100 383 150 387C200 391 250 409 300 413C350 417 400 407 450 414C500 421 550 445 600 448C650 451 700 433 750 416C800 399 850 383 875 375L900 367L900 215L875 234C850 253 800 291 750 313C700 335 650 341 600 340C550 339 500 331 450 319C400 307 350 291 300 279C250 267 200 259 150 265C100 271 50 291 25 301L0 311Z" fill="#aed8b4"></path><path d="M0 517L25 521C50 525 100 533 150 540C200 547 250 553 300 548C350 543 400 527 450 528C500 529 550 547 600 554C650 561 700 557 750 556C800 555 850 557 875 558L900 559L900 365L875 373C850 381 800 397 750 414C700 431 650 449 600 446C550 443 500 419 450 412C400 405 350 415 300 411C250 407 200 389 150 385C100 381 50 391 25 396L0 401Z" fill="#9ecda4"></path><path d="M0 601L25 601C50 601 100 601 150 601C200 601 250 601 300 601C350 601 400 601 450 601C500 601 550 601 600 601C650 601 700 601 750 601C800 601 850 601 875 601L900 601L900 557L875 556C850 555 800 553 750 554C700 555 650 559 600 552C550 545 500 527 450 526C400 525 350 541 300 546C250 551 200 545 150 538C100 531 50 523 25 519L0 515Z" fill="#8ec295"></path></svg>